<?xml version="1.0" encoding="UTF-8"?>
<svg version="1.1" xmlns="http://www.w3.org/2000/svg" width="98" height="26">
<path d="M0 0 C32.34 0 64.68 0 98 0 C98 8.58 98 17.16 98 26 C65.66 26 33.32 26 0 26 C0 17.42 0 8.84 0 0 Z " fill="#2F2C2B" transform="translate(0,0)"/>
<path d="M0 0 C11.22 0 22.44 0 34 0 C34 6.27 34 12.54 34 19 C35.98 19 37.96 19 40 19 C40 16.69 40 14.38 40 12 C42.31 12 44.62 12 47 12 C47 16.62 47 21.24 47 26 C31.49 26 15.98 26 0 26 C0 17.42 0 8.84 0 0 Z " fill="#2E2B2A" transform="translate(0,0)"/>
<path d="M0 0 C9.57 0 19.14 0 29 0 C29 8.58 29 17.16 29 26 C19.43 26 9.86 26 0 26 C0.99 25.01 1.98 24.02 3 23 C3.45942166 20.83273497 3.45942166 20.83273497 3.3984375 18.4375 C3.40230469 17.55835937 3.40617187 16.67921875 3.41015625 15.7734375 C3.39855469 14.85820312 3.38695313 13.94296875 3.375 13 C3.38660156 12.08476562 3.39820312 11.16953125 3.41015625 10.2265625 C3.40628906 9.34742188 3.40242188 8.46828125 3.3984375 7.5625 C3.39505371 6.75941406 3.39166992 5.95632812 3.38818359 5.12890625 C3.12818863 2.55939355 3.12818863 2.55939355 0 0 Z " fill="#2F2B2A" transform="translate(69,0)"/>
<path d="M0 0 C2.64 0 5.28 0 8 0 C8 6.27 8 12.54 8 19 C9.98 19 11.96 19 14 19 C14 16.69 14 14.38 14 12 C16.31 12 18.62 12 21 12 C21 16.62 21 21.24 21 26 C14.07 26 7.14 26 0 26 C0 17.42 0 8.84 0 0 Z " fill="#302C2B" transform="translate(26,0)"/>
<path d="M0 0 C6.93 0 13.86 0 21 0 C20.67 0.66 20.34 1.32 20 2 C19.34 2 18.68 2 18 2 C17.91271118 5.24983 17.85951342 8.4993575 17.8125 11.75 C17.78736328 12.67039062 17.76222656 13.59078125 17.73632812 14.5390625 C17.72666016 15.42851562 17.71699219 16.31796875 17.70703125 17.234375 C17.6913208 18.05131836 17.67561035 18.86826172 17.65942383 19.70996094 C18.07620541 22.51240627 19.16195148 23.88847021 21 26 C18.36 26 15.72 26 13 26 C13 21.38 13 16.76 13 12 C10.69 12 8.38 12 6 12 C6 14.31 6 16.62 6 19 C4.02 19 2.04 19 0 19 C0 12.73 0 6.46 0 0 Z " fill="#E9EAE8" transform="translate(34,0)"/>
<path d="M0 0 C4.29 0 8.58 0 13 0 C11.515 1.485 11.515 1.485 10 3 C9.54145222 5.05260141 9.54145222 5.05260141 9.6015625 7.30859375 C9.59769531 8.13810547 9.59382813 8.96761719 9.58984375 9.82226562 C9.60144531 10.68529297 9.61304687 11.54832031 9.625 12.4375 C9.61339844 13.29666016 9.60179688 14.15582031 9.58984375 15.04101562 C9.59371094 15.87181641 9.59757812 16.70261719 9.6015625 17.55859375 C9.60494629 18.31454834 9.60833008 19.07050293 9.61181641 19.84936523 C9.92948374 22.52869665 9.92948374 22.52869665 13 26 C8.71 26 4.42 26 0 26 C0.99 25.01 1.98 24.02 3 23 C3.45942166 20.83273497 3.45942166 20.83273497 3.3984375 18.4375 C3.40230469 17.55835937 3.40617187 16.67921875 3.41015625 15.7734375 C3.39855469 14.85820312 3.38695313 13.94296875 3.375 13 C3.38660156 12.08476562 3.39820312 11.16953125 3.41015625 10.2265625 C3.40628906 9.34742188 3.40242188 8.46828125 3.3984375 7.5625 C3.39505371 6.75941406 3.39166992 5.95632812 3.38818359 5.12890625 C3.12818863 2.55939355 3.12818863 2.55939355 0 0 Z " fill="#E0E1DF" transform="translate(69,0)"/>
<path d="M0 0 C2.97 0 5.94 0 9 0 C9 8.58 9 17.16 9 26 C5.7 26 2.4 26 -1 26 C-0.18660156 25.525625 0.62679688 25.05125 1.46484375 24.5625 C4.62023272 21.37307756 4.62404731 19.77551254 4.63476562 15.4453125 C4.61091797 14.63835938 4.58707031 13.83140625 4.5625 13 C4.57893555 11.78957031 4.57893555 11.78957031 4.59570312 10.5546875 C4.54637173 6.56871044 4.50445664 4.63516997 1.96484375 1.4375 C1.31644531 0.963125 0.66804688 0.48875 0 0 Z " fill="#EFF0EE" transform="translate(17,0)"/>
<path d="M0 0 C0.33 0 0.66 0 1 0 C1 3.96 1 7.92 1 12 C-1.31 12 -3.62 12 -6 12 C-6 14.31 -6 16.62 -6 19 C-7.65 19 -9.3 19 -11 19 C-11 15.04 -11 11.08 -11 7 C-7.37 7 -3.74 7 0 7 C0 4.69 0 2.38 0 0 Z " fill="#EFF0EE" transform="translate(97,0)"/>
<path d="M0 0 C1.98 0 3.96 0 6 0 C6 3.96 6 7.92 6 12 C4.35 12.33 2.7 12.66 1 13 C0 12 0 12 -0.09765625 9.27734375 C-0.08605469 8.17519531 -0.07445312 7.07304687 -0.0625 5.9375 C-0.05347656 4.83277344 -0.04445312 3.72804688 -0.03515625 2.58984375 C-0.02355469 1.73519531 -0.01195312 0.88054688 0 0 Z " fill="#E5E5E4" transform="translate(59,7)"/>
<path d="M0 0 C1.98 0 3.96 0 6 0 C6 3.96 6 7.92 6 12 C4.02 12 2.04 12 0 12 C0 8.04 0 4.08 0 0 Z " fill="#E8E8E6" transform="translate(8,7)"/>
</svg>
